<?xml version="1.0" encoding="UTF-8" standalone="no"?>
<!-- Created with Inkscape (http://www.inkscape.org/) -->

<svg
   xmlns:dc="http://purl.org/dc/elements/1.1/"
   xmlns:cc="http://creativecommons.org/ns#"
   xmlns:rdf="http://www.w3.org/1999/02/22-rdf-syntax-ns#"
   xmlns:svg="http://www.w3.org/2000/svg"
   xmlns="http://www.w3.org/2000/svg"
   xmlns:sodipodi="http://sodipodi.sourceforge.net/DTD/sodipodi-0.dtd"
   xmlns:inkscape="http://www.inkscape.org/namespaces/inkscape"
   version="1.0"
   width="42"
   height="42"
   id="svg2"
   inkscape:version="0.91 r13725"
   sodipodi:docname="custom.svg">
  <sodipodi:namedview
     pagecolor="#ffffff"
     bordercolor="#666666"
     borderopacity="1"
     objecttolerance="10"
     gridtolerance="10"
     guidetolerance="10"
     inkscape:pageopacity="0"
     inkscape:pageshadow="2"
     inkscape:window-width="1600"
     inkscape:window-height="836"
     id="namedview5196"
     showgrid="false"
     inkscape:zoom="9.627936"
     inkscape:cx="15.065411"
     inkscape:cy="20.939587"
     inkscape:window-x="0"
     inkscape:window-y="27"
     inkscape:window-maximized="1"
     inkscape:current-layer="svg2"
     showguides="true"
     inkscape:guide-bbox="true">
    <sodipodi:guide
       position="-11.528951,30.120682"
       orientation="0,1"
       id="guide6411" />
    <sodipodi:guide
       position="-20.253562,26.277699"
       orientation="0,1"
       id="guide6413" />
  </sodipodi:namedview>
  <defs
     id="defs4" />
  <metadata
     id="metadata7">
    <rdf:RDF>
      <cc:Work
         rdf:about="">
        <dc:format>image/svg+xml</dc:format>
        <dc:type
           rdf:resource="http://purl.org/dc/dcmitype/StillImage" />
        <dc:title></dc:title>
      </cc:Work>
    </rdf:RDF>
  </metadata>
  <rect
     style="fill:#4c4d4f;fill-opacity:1;fill-rule:evenodd;stroke:#ffffff;stroke-width:3.5;stroke-linecap:butt;stroke-linejoin:round;stroke-miterlimit:4;stroke-dasharray:none;stroke-opacity:1"
     id="rect7017"
     y="1.9769124"
     x="9.9769115"
     ry="4.5299301"
     height="30.046175"
     width="30.046175" />
  <rect
     style="fill:#4c4d4f;fill-opacity:1;fill-rule:evenodd;stroke:#ffffff;stroke-width:3.5;stroke-linecap:butt;stroke-linejoin:round;stroke-miterlimit:4;stroke-dasharray:none;stroke-opacity:1"
     id="rect3133"
     y="9.9769125"
     x="1.9769125"
     ry="4.5299301"
     height="30.046175"
     width="30.046175" />
  <g
     id="g4"
     transform="matrix(0.23515901,0,0,0.23515901,5.2420495,13.24205)"
     style="fill:#ffffff">
    <path
       d="m 21.24,57 c 0.799,3.24 2.119,6.26 3.859,8.98 l -4.859,4.879 c -2.182,2.18 -2.16,3.48 -0.24,5.4 L 24.74,81 c 1.939,1.941 3.26,1.9 5.4,-0.24 l 5.1,-5.119 c 2.4,1.379 5,2.439 7.76,3.119 L 43,85 c 0,3.1 0.939,4 3.641,4 l 6.719,0 C 56.1,89 57,88.039 57,85 l 0,-6.24 c 2.76,-0.68 5.359,-1.74 7.76,-3.119 l 5.221,5.238 c 2.16,2.141 3.459,2.182 5.398,0.262 l 4.762,-4.762 c 1.898,-1.898 1.939,-3.199 -0.262,-5.398 l -5,-5 c 1.762,-2.721 3.082,-5.74 3.881,-8.98 l 6.6,0 C 88.1,57 89,56.039 89,53 l 0,-6 c 0,-2.961 -0.781,-4 -3.641,-4 l -6.6,0 c -0.68,-2.76 -1.74,-5.359 -3.119,-7.76 L 80.4,30.5 c 2.1,-2.1 2.279,-3.4 0.26,-5.4 L 75.9,20.34 C 74,18.44 72.64,18.461 70.5,20.6 l -4.52,4.5 C 63.259,23.36 60.24,22.039 57,21.241 L 57,15 c 0,-2.961 -0.781,-4 -3.641,-4 L 46.64,11 C 43.939,11 43,11.98 43,15 l 0,6.24 c -3.24,0.799 -6.26,2.119 -8.98,3.859 l -4.52,-4.5 C 27.359,18.46 26,18.439 24.1,20.339 l -4.76,4.76 c -2.02,2 -1.84,3.301 0.26,5.4 l 4.74,4.74 c -1.359,2.4 -2.42,5 -3.1,7.76 l -6.6,0 C 11.939,43 11,43.98 11,47 l 0,6 c 0,3.1 0.939,4 3.641,4 l 6.599,0 z M 38.559,50 C 38.559,43.68 43.68,38.561 50,38.561 56.32,38.561 61.439,43.68 61.439,50 61.439,56.32 56.32,61.441 50,61.441 43.68,61.441 38.559,56.32 38.559,50 Z"
       id="path6"
       inkscape:connector-curvature="0"
       style="fill:#ffffff;fill-rule:evenodd" />
  </g>
</svg>
